REM DIRINDEX 1\2,1\3,1\4,1\5\6,1\5\7,1\8
REM DIRNAME folder01,folder02,folder03,folder04,folder05,folder06,folder07,folder08
TITLE ""
FILE "127 【127】Unit7 (1441 roam_1452 haunt).mp3" MP3
  TRACK 01 AUDIO
    TITLE "0:"
    INDEX 01 00:00:00
  TRACK 02 AUDIO
    TITLE "2:cjc115_4938"
    INDEX 01 00:00:07
  TRACK 03 AUDIO
    TITLE "0:"
    INDEX 01 00:01:11
  TRACK 04 AUDIO
    TITLE "3:cjc115_4939"
    INDEX 01 00:01:22
  TRACK 05 AUDIO
    TITLE "0:"
    INDEX 01 00:02:61
  TRACK 06 AUDIO
    TITLE "4:cjc115_4940"
    INDEX 01 00:02:71
  TRACK 07 AUDIO
    TITLE "0:"
    INDEX 01 00:06:57
  TRACK 08 AUDIO
    TITLE "2:cjc115_4941"
    INDEX 01 00:07:66
  TRACK 09 AUDIO
    TITLE "0:"
    INDEX 01 00:09:12
  TRACK 10 AUDIO
    TITLE "3:cjc115_4942"
    INDEX 01 00:09:22
  TRACK 11 AUDIO
    TITLE "0:"
    INDEX 01 00:10:53
  TRACK 12 AUDIO
    TITLE "4:cjc115_4943"
    INDEX 01 00:10:65
  TRACK 13 AUDIO
    TITLE "0:"
    INDEX 01 00:14:72
  TRACK 14 AUDIO
    TITLE "2:cjc115_4944"
    INDEX 01 00:16:06
  TRACK 15 AUDIO
    TITLE "0:"
    INDEX 01 00:17:21
  TRACK 16 AUDIO
    TITLE "3:cjc115_4945"
    INDEX 01 00:17:27
  TRACK 17 AUDIO
    TITLE "0:"
    INDEX 01 00:20:65
  TRACK 18 AUDIO
    TITLE "4:cjc115_4946"
    INDEX 01 00:20:71
  TRACK 19 AUDIO
    TITLE "0:"
    INDEX 01 00:24:16
  TRACK 20 AUDIO
    TITLE "2:cjc115_4947"
    INDEX 01 00:25:25
  TRACK 21 AUDIO
    TITLE "0:"
    INDEX 01 00:26:56
  TRACK 22 AUDIO
    TITLE "3:cjc115_4948"
    INDEX 01 00:26:66
  TRACK 23 AUDIO
    TITLE "0:"
    INDEX 01 00:29:40
  TRACK 24 AUDIO
    TITLE "4:cjc115_4949"
    INDEX 01 00:29:48
  TRACK 25 AUDIO
    TITLE "0:"
    INDEX 01 00:34:32
  TRACK 26 AUDIO
    TITLE "2:cjc115_4950"
    INDEX 01 00:35:39
  TRACK 27 AUDIO
    TITLE "0:"
    INDEX 01 00:36:56
  TRACK 28 AUDIO
    TITLE "3:cjc115_4951"
    INDEX 01 00:36:62
  TRACK 29 AUDIO
    TITLE "0:"
    INDEX 01 00:38:55
  TRACK 30 AUDIO
    TITLE "4:cjc115_4952"
    INDEX 01 00:38:63
  TRACK 31 AUDIO
    TITLE "0:"
    INDEX 01 00:43:09
  TRACK 32 AUDIO
    TITLE "2:cjc115_4953"
    INDEX 01 00:44:18
  TRACK 33 AUDIO
    TITLE "0:"
    INDEX 01 00:45:35
  TRACK 34 AUDIO
    TITLE "3:cjc115_4954"
    INDEX 01 00:45:43
  TRACK 35 AUDIO
    TITLE "0:"
    INDEX 01 00:48:67
  TRACK 36 AUDIO
    TITLE "4:cjc115_4955"
    INDEX 01 00:49:00
  TRACK 37 AUDIO
    TITLE "0:"
    INDEX 01 00:52:04
  TRACK 38 AUDIO
    TITLE "2:cjc115_4956"
    INDEX 01 00:53:13
  TRACK 39 AUDIO
    TITLE "0:"
    INDEX 01 00:54:25
  TRACK 40 AUDIO
    TITLE "3:cjc115_4957"
    INDEX 01 00:54:34
  TRACK 41 AUDIO
    TITLE "0:"
    INDEX 01 00:55:48
  TRACK 42 AUDIO
    TITLE "4:cjc115_4958"
    INDEX 01 00:55:53
  TRACK 43 AUDIO
    TITLE "0:"
    INDEX 01 00:59:10
  TRACK 44 AUDIO
    TITLE "2:cjc115_4959"
    INDEX 01 01:00:17
  TRACK 45 AUDIO
    TITLE "0:"
    INDEX 01 01:01:38
  TRACK 46 AUDIO
    TITLE "3:cjc115_4960"
    INDEX 01 01:01:48
  TRACK 47 AUDIO
    TITLE "0:"
    INDEX 01 01:03:53
  TRACK 48 AUDIO
    TITLE "4:cjc115_4961"
    INDEX 01 01:03:61
  TRACK 49 AUDIO
    TITLE "0:"
    INDEX 01 01:07:35
  TRACK 50 AUDIO
    TITLE "2:cjc115_4962"
    INDEX 01 01:08:48
  TRACK 51 AUDIO
    TITLE "0:"
    INDEX 01 01:09:54
  TRACK 52 AUDIO
    TITLE "3:cjc115_4963"
    INDEX 01 01:09:69
  TRACK 53 AUDIO
    TITLE "0:"
    INDEX 01 01:11:64
  TRACK 54 AUDIO
    TITLE "4:cjc115_4964"
    INDEX 01 01:11:68
  TRACK 55 AUDIO
    TITLE "0:"
    INDEX 01 01:15:35
  TRACK 56 AUDIO
    TITLE "2:cjc115_4965"
    INDEX 01 01:16:44
  TRACK 57 AUDIO
    TITLE "0:"
    INDEX 01 01:17:55
  TRACK 58 AUDIO
    TITLE "3:cjc115_4966"
    INDEX 01 01:17:57
  TRACK 59 AUDIO
    TITLE "0:"
    INDEX 01 01:19:72
  TRACK 60 AUDIO
    TITLE "4:cjc115_4967"
    INDEX 01 01:20:02
  TRACK 61 AUDIO
    TITLE "0:"
    INDEX 01 01:23:05
  TRACK 62 AUDIO
    TITLE "2:cjc115_4968"
    INDEX 01 01:24:14
  TRACK 63 AUDIO
    TITLE "0:"
    INDEX 01 01:25:45
  TRACK 64 AUDIO
    TITLE "3:cjc115_4969"
    INDEX 01 01:25:57
  TRACK 65 AUDIO
    TITLE "0:"
    INDEX 01 01:27:18
  TRACK 66 AUDIO
    TITLE "4:cjc115_4970"
    INDEX 01 01:27:26
  TRACK 67 AUDIO
    TITLE "0:"
    INDEX 01 01:30:26
  TRACK 68 AUDIO
    TITLE "2:cjc115_4971"
    INDEX 01 01:31:36
  TRACK 69 AUDIO
    TITLE "0:"
    INDEX 01 01:32:37
  TRACK 70 AUDIO
    TITLE "3:cjc115_4972"
    INDEX 01 01:32:47
  TRACK 71 AUDIO
    TITLE "0:"
    INDEX 01 01:36:07
  TRACK 72 AUDIO
    TITLE "4:cjc115_4973"
    INDEX 01 01:36:09
  TRACK 73 AUDIO
    TITLE "0:"
    INDEX 01 01:41:38
